<svg height="70" viewBox="0 0 70 70" width="70" xmlns="http://www.w3.org/2000/svg"><path d="m28.3454542 59.702028 26.5950545-15.3931613c6.3787471-3.6919037 6.3787471-12.9257957 0-16.6176994l-26.5950545-15.3931613c-6.3698836-3.68687398-14.3454542.9172691-14.3454542 8.3088496v10.5980656l.004379.0247968c.0069994.0344693.0203122.0847662.0426293.1473737.0259106.0728075.0581444.146084.0932155.2140976l.0580316.1005442c.0512422.0421853.1261953.0952961.2239051.1513966.0642722.0370486.1296309.0704236.1919596.0987181l.0907059.0384555c.0473248.0186415.0825855.0300726.1053071.0365796l.0238295-.0024621c.0655267-.0073863.1513833-.0239175.2490052-.0488901l.2140259-.0629591 10.6911678-6.1880055c.6215194-.3713711 1.3488735-.5844826 2.1208266-.5844826 2.2920473 0 4.1424837 1.8614982 4.1424837 4.1484279 0 1.4753102-.7699375 2.7702106-1.925068 3.5044428l-.1960224.1171155-13.0752445 7.5679365-.5711263.4982341c-.0989237.0885311-.2041717.1839054-.3127288.284007l-.3784841.3568032c-.4291775.4141023-.8034714.8109699-1.0018338 1.0893228-.5503166.7723488-.7563488 1.2955502-.7868659 1.9377838l-.004098.1783824v6.5806385c0 7.3915453 7.9755706 11.9956532 14.3454542 8.3088496z" fill="none" stroke="#00c300" stroke-width="5"/></svg>